<mxfile host="app.diagrams.net" modified="2024-03-18T11:57:14.924Z" agent="Mozilla/5.0 (Macintosh; Intel Mac OS X 10_15_7) AppleWebKit/537.36 (KHTML, like Gecko) Chrome/121.0.0.0 Safari/537.36 Edg/121.0.0.0" version="24.0.4" etag="NgQp_o5DzbgrYuTxaE4N" type="github">
  <diagram name="第 1 页" id="umguaG9aVl7VA1v_p4OE">
    <mxGraphModel>
      <root>
        <mxCell id="0" />
        <mxCell id="1" parent="0" />
      </root>
    </mxGraphModel>
  </diagram>
</mxfile>
